<svg width="400" height="400" xmlns="http://www.w3.org/2000/svg">
  <defs>
    <radialGradient id="starGlow" cx="50%" cy="50%" r="50%" fx="50%" fy="50%">
      <stop offset="0%" stop-color="white" stop-opacity="0.8"/>
      <stop offset="100%" stop-color="white" stop-opacity="0"/>
    </radialGradient>
  </defs>
  <g fill="url(#starGlow)">
    <circle cx="50" cy="50" r="1" />
    <circle cx="120" cy="30" r="0.8" />
    <circle cx="200" cy="70" r="1.2" />
    <circle cx="280" cy="40" r="0.7" />
    <circle cx="350" cy="90" r="1" />
    <circle cx="70" cy="120" r="0.9" />
    <circle cx="150" cy="150" r="1.1" />
    <circle cx="230" cy="130" r="0.8" />
    <circle cx="310" cy="170" r="1" />
    <circle cx="30" cy="200" r="0.7" />
    <circle cx="100" cy="230" r="1.2" />
    <circle cx="180" cy="210" r="0.9" />
    <circle cx="260" cy="250" r="1" />
    <circle cx="340" cy="220" r="0.8" />
    <circle cx="60" cy="290" r="1.1" />
    <circle cx="140" cy="320" r="0.7" />
    <circle cx="220" cy="300" r="1" />
    <circle cx="300" cy="340" r="0.9" />
    <circle cx="380" cy="310" r="1.2" />
    <circle cx="20" cy="370" r="0.8" />
  </g>
</svg>
